<svg xmlns="http://www.w3.org/2000/svg" viewBox="0 0 335.22 87.4"><defs><style>.cls-1{fill:#0089cf;}.cls-2{fill:#666;}</style></defs><title>Asset 1</title><g id="Layer_2" data-name="Layer 2"><g id="Layer_1-2" data-name="Layer 1"><path class="cls-1" d="M37.6,79.15a14.85,14.85,0,0,0,.48-3.3c0-.25,0-.53,0-.83a27.42,27.42,0,0,1-7.72-3.75,32.34,32.34,0,0,1-7.34-7.1,33.2,33.2,0,0,1-5-9.63,37.1,37.1,0,0,1-1.81-11.8,37.1,37.1,0,0,1,1.5-10.53,33.55,33.55,0,0,1,4.39-9.39,26.92,26.92,0,0,1,7.22-7.22,25.92,25.92,0,0,1,8.82-3.78,13.31,13.31,0,0,0-.57-3.33A60.8,60.8,0,0,0,24.5,12a45.22,45.22,0,0,0-12.34,7.16A36.05,36.05,0,0,0,3.37,29.74,28.78,28.78,0,0,0,0,43.83,30.06,30.06,0,0,0,3.31,58.21,33.9,33.9,0,0,0,12.1,68.81a45.51,45.51,0,0,0,12.46,7A59.28,59.28,0,0,0,37.6,79.15Z"/><path class="cls-1" d="M56.72,79.15a14.85,14.85,0,0,1-.48-3.3c0-.25,0-.53,0-.83a27.42,27.42,0,0,0,7.72-3.75,32.34,32.34,0,0,0,7.34-7.1,33.2,33.2,0,0,0,5-9.63,37.1,37.1,0,0,0,1.81-11.8,37.1,37.1,0,0,0-1.5-10.53,33.55,33.55,0,0,0-4.39-9.39,26.92,26.92,0,0,0-7.22-7.22,25.93,25.93,0,0,0-8.82-3.78,13.31,13.31,0,0,1,.57-3.33A60.8,60.8,0,0,1,69.82,12a45.22,45.22,0,0,1,12.34,7.16,36.06,36.06,0,0,1,8.79,10.59,28.78,28.78,0,0,1,3.37,14.08A30.06,30.06,0,0,1,91,58.21a33.9,33.9,0,0,1-8.79,10.59,45.51,45.51,0,0,1-12.46,7A59.28,59.28,0,0,1,56.72,79.15Z"/><path class="cls-1" d="M64.16,87.16Q61.45,87,58.44,87l-5.92-.12q-2.91-.06-5.22-.06t-5,.06q-2.79.06-5.62.18t-5.54.18q-2.71.06-4.63.18v-.72q3.37-.48,6-1.08a12.66,12.66,0,0,0,4.27-1.75,7.91,7.91,0,0,0,2.65-3.07,12.79,12.79,0,0,0,1.08-5.18q.12-2.53.12-7.76V37q0-2.89.06-6.2T40.75,24V17.46q0-3.13-.12-5.66a12.07,12.07,0,0,0-1.14-5.18,8,8,0,0,0-2.83-3.07,14.19,14.19,0,0,0-4.39-1.75q-2.59-.6-6-1.08V0q1.92,0,4.7.06T36.71.3q2.95.18,5.74.3t4.85.12q2.43,0,5.22-.06T58.08.48L63.32.24Q65.78.12,67.59,0V.84a40.79,40.79,0,0,0-6.26,1,11.41,11.41,0,0,0-4.09,1.87,7.35,7.35,0,0,0-2.35,3.13,14.42,14.42,0,0,0-.9,4.82q-.12,2-.18,4.94t-.06,6.74V70.42a55.6,55.6,0,0,0,.24,6,14.94,14.94,0,0,0,1,4.27A6.55,6.55,0,0,0,57.3,83.6a13.6,13.6,0,0,0,4.39,1.87,43,43,0,0,0,7.1,1.08v.84Q66.87,87.28,64.16,87.16Z"/><polygon class="cls-2" points="186.8 53.34 196.38 53.34 198.35 49.11 188.55 49.11 193.65 37.55 203.56 59.41 209.04 59.41 193.84 26.87 193.55 26.87 178.35 59.41 184.03 59.41 186.8 53.34"/><polygon class="cls-2" points="160.15 37.55 170.06 59.41 175.54 59.41 160.34 26.87 160.05 26.87 144.85 59.41 150.53 59.41 160.15 37.55"/><polygon class="cls-2" points="282.43 53.34 292.01 53.34 293.98 49.11 284.18 49.11 289.28 37.55 299.2 59.41 304.68 59.41 289.48 26.87 289.18 26.87 273.98 59.41 279.67 59.41 282.43 53.34"/><path class="cls-2" d="M232.8,32.65H218.57V59.41h-5.63V27.84H232.8Z"/><path class="cls-2" d="M243.29,40.61v18.8h-5.63V26.87h.24l16,19.43,15.93-19.43h.24V59.41h-5.59V40.61l-10.44,13h-.39Z"/><path class="cls-2" d="M314.2,59.41h-5.63V27.84h5.63V41.1h15.2V27.84H335V59.41H329.4V45.62H314.2Z"/><path class="cls-2" d="M129.78,31.19l-5.63-4.32v4.32c-8.21,0-14.42,3.89-14.42,12.43S115.94,56,124.15,56v3.4h5.63V56c8.11,0,14.28-3.84,14.28-12.38S137.89,31.19,129.78,31.19Zm-5.63,20.16c-5.68,0-8.79-2.23-8.79-7.72s3.11-7.72,8.79-7.72Zm5.63,0V35.9c5.73,0,8.65,2.23,8.65,7.72S135.51,51.35,129.78,51.35Z"/><path class="cls-2" d="M113.25,72.54h-2.62l-.54,1.24h-.69l2.51-5.63H112l2.52,5.63h-.69Zm-2.4-.51H113l-1.1-2.54Z"/><path class="cls-2" d="M121.19,68.32h2c1.25,0,1.83.51,1.83,1.34a1.21,1.21,0,0,1-.86,1.24v0a1.32,1.32,0,0,1,1.12,1.34c0,.87-.59,1.51-1.89,1.51h-2.2Zm1.93,2.39c.85,0,1.24-.34,1.24-1s-.4-.87-1.22-.87h-1.27v1.86Zm-1.25,2.55h1.47c.87,0,1.27-.39,1.27-1s-.43-1-1.32-1h-1.42Z"/><path class="cls-2" d="M136.09,68.91h-1.82v4.88h-.67V68.91h-1.81v-.59h4.3Z"/><path class="cls-2" d="M145,68.19a2.87,2.87,0,1,1-2.57,2.86A2.55,2.55,0,0,1,145,68.19Zm0,5.12c1.14,0,1.89-.87,1.89-2.26s-.75-2.25-1.89-2.25-1.88.86-1.88,2.25S143.87,73.31,145,73.31Z"/><path class="cls-2" d="M155.14,69.89v3.89h-.67V68.15h.05l2.59,3.47,2.6-3.47h0v5.63h-.66V69.89l-2,2.69h0Z"/><path class="cls-2" d="M170.31,72.54h-2.62l-.54,1.24h-.69L169,68.15H169l2.52,5.63h-.69ZM167.9,72h2.19L169,69.49Z"/><path class="cls-2" d="M181.62,68.91H179.8v4.88h-.67V68.91h-1.81v-.59h4.3Z"/><path class="cls-2" d="M188.53,74h0V68.32h.67v4.09l3.74-4.26h0v5.63h-.67v-4.1Z"/><path class="cls-2" d="M200.27,72.45a2.11,2.11,0,0,0,1.67.85c.93,0,1.56-.4,1.56-1.12,0-.89-.85-1-1.53-1h-.49v-.56h.45c.9,0,1.33-.35,1.33-.92s-.61-.89-1.35-.89a1.8,1.8,0,0,0-1.47.77l-.45-.43a2.38,2.38,0,0,1,2-.93c1.21,0,2,.5,2,1.42a1.11,1.11,0,0,1-1,1.19v.05a1.28,1.28,0,0,1,1.24,1.35c0,.86-.68,1.71-2.2,1.71a2.52,2.52,0,0,1-2.19-1Z"/><path class="cls-2" d="M214.3,72.54h-2.62l-.54,1.24h-.69L213,68.15H213l2.52,5.63h-.69Zm-2.4-.51h2.19L213,69.49Z"/><path class="cls-2" d="M222.23,68.32h.67V73.2h2.89V68.32h.67V73.2h.64V75.1h-.67V73.78h-4.2Z"/><path class="cls-2" d="M233.8,74h0V68.32h.67v4.09l3.74-4.26h0v5.63h-.67v-4.1Z"/><path class="cls-2" d="M248.56,71.87h-1.13l-.41,0-1.17,1.94h-.79l1.3-2.09a1.62,1.62,0,0,1-1-1.62c0-1.26.87-1.75,2.09-1.75h1.81v5.46h-.67Zm0-.55V68.89h-1c-.92,0-1.57.21-1.57,1.18s.63,1.24,1.57,1.24Z"/><path class="cls-2" d="M267.67,68.91h-2.83v1.53h1.31c1.11,0,2,.39,2,1.65s-.89,1.7-2,1.7h-2V68.32h3.51ZM264.84,71v2.22H266c.87,0,1.51-.16,1.51-1.13S266.83,71,266,71Z"/><path class="cls-2" d="M275.09,74h0V68.32h.67v4.09l3.74-4.26h0v5.63h-.67v-4.1Z"/><path class="cls-2" d="M286.83,72.45a2.11,2.11,0,0,0,1.67.85c.93,0,1.56-.4,1.56-1.12,0-.89-.85-1-1.53-1H288v-.56h.45c.9,0,1.33-.35,1.33-.92s-.61-.89-1.35-.89a1.8,1.8,0,0,0-1.47.77l-.45-.43a2.38,2.38,0,0,1,2-.93c1.21,0,2,.5,2,1.42a1.11,1.11,0,0,1-1,1.19v.05a1.28,1.28,0,0,1,1.24,1.35c0,.86-.68,1.71-2.2,1.71a2.52,2.52,0,0,1-2.19-1Z"/><path class="cls-2" d="M298.35,73.78h-.67V68.32h.67v2.4h2.93v-2.4h.66v5.46h-.66V71.27h-2.93Z"/><path class="cls-2" d="M309.07,68.32h3.46v.59h-2.79V70.7h2.33v.57h-2.33V73.2h2.88v.58h-3.55Z"/><path class="cls-2" d="M321.71,73.31a1.76,1.76,0,0,0,1.58-.89l.53.36a2.33,2.33,0,0,1-2.12,1.13,2.53,2.53,0,0,1-2.58-2.82,2.58,2.58,0,0,1,2.57-2.89,2.34,2.34,0,0,1,2.1,1.1l-.53.38a1.72,1.72,0,0,0-1.57-.87c-1.08,0-1.88.81-1.88,2.25S320.64,73.31,321.71,73.31Z"/><path class="cls-2" d="M334,72.54h-2.62l-.54,1.24h-.69l2.51-5.63h.05l2.52,5.63h-.69Zm-2.4-.51h2.19l-1.1-2.54Z"/></g></g></svg>